<?xml version="1.0" encoding="UTF-8" standalone="no"?>
<!-- Created with Inkscape (http://www.inkscape.org/) -->

<svg
   xmlns:dc="http://purl.org/dc/elements/1.1/"
   xmlns:cc="http://creativecommons.org/ns#"
   xmlns:rdf="http://www.w3.org/1999/02/22-rdf-syntax-ns#"
   xmlns:svg="http://www.w3.org/2000/svg"
   xmlns="http://www.w3.org/2000/svg"
   xmlns:sodipodi="http://sodipodi.sourceforge.net/DTD/sodipodi-0.dtd"
   xmlns:inkscape="http://www.inkscape.org/namespaces/inkscape"
   id="svg1890"
   sodipodi:version="0.32"
   inkscape:version="0.48.4 r9939"
   width="500.34357"
   height="500.34357"
   version="1.0"
   sodipodi:docname="AJAX1.svg"
   inkscape:output_extension="org.inkscape.output.svg.inkscape">
  <metadata
     id="metadata1895">
    <rdf:RDF>
      <cc:Work
         rdf:about="">
        <dc:format>image/svg+xml</dc:format>
        <dc:type
           rdf:resource="http://purl.org/dc/dcmitype/StillImage" />
      </cc:Work>
    </rdf:RDF>
  </metadata>
  <defs
     id="defs1893">
    <inkscape:perspective
       sodipodi:type="inkscape:persp3d"
       inkscape:vp_x="0 : 235 : 1"
       inkscape:vp_y="0 : 1000 : 0"
       inkscape:vp_z="470 : 235 : 1"
       inkscape:persp3d-origin="235 : 156.66667 : 1"
       id="perspective10" />
    <inkscape:perspective
       id="perspective2390"
       inkscape:persp3d-origin="372.04724 : 350.78739 : 1"
       inkscape:vp_z="744.09448 : 526.18109 : 1"
       inkscape:vp_y="0 : 1000 : 0"
       inkscape:vp_x="0 : 526.18109 : 1"
       sodipodi:type="inkscape:persp3d" />
    <inkscape:perspective
       id="perspective3168"
       inkscape:persp3d-origin="372.04724 : 350.78739 : 1"
       inkscape:vp_z="744.09448 : 526.18109 : 1"
       inkscape:vp_y="0 : 1000 : 0"
       inkscape:vp_x="0 : 526.18109 : 1"
       sodipodi:type="inkscape:persp3d" />
    <inkscape:perspective
       id="perspective2400"
       inkscape:persp3d-origin="372.04724 : 350.78739 : 1"
       inkscape:vp_z="744.09448 : 526.18109 : 1"
       inkscape:vp_y="0 : 1000 : 0"
       inkscape:vp_x="0 : 526.18109 : 1"
       sodipodi:type="inkscape:persp3d" />
    <inkscape:perspective
       id="perspective2391"
       inkscape:persp3d-origin="372.04724 : 350.78739 : 1"
       inkscape:vp_z="744.09448 : 526.18109 : 1"
       inkscape:vp_y="0 : 1000 : 0"
       inkscape:vp_x="0 : 526.18109 : 1"
       sodipodi:type="inkscape:persp3d" />
  </defs>
  <sodipodi:namedview
     inkscape:window-height="1004"
     inkscape:window-width="1280"
     inkscape:pageshadow="2"
     inkscape:pageopacity="0.0"
     guidetolerance="10.0"
     gridtolerance="10.0"
     objecttolerance="10.0"
     borderopacity="1.0"
     bordercolor="#666666"
     pagecolor="#ffffff"
     id="base"
     inkscape:zoom="1"
     inkscape:cx="229.85262"
     inkscape:cy="268.66789"
     inkscape:window-x="-8"
     inkscape:window-y="-8"
     inkscape:current-layer="svg1890"
     showgrid="false"
     fit-margin-top="0.2"
     fit-margin-left="0.2"
     fit-margin-right="0.2"
     fit-margin-bottom="0.2"
     inkscape:window-maximized="1"
     showguides="true"
     inkscape:guide-bbox="true" />
  <path
     style="fill:#fcdc0f;fill-opacity:1;fill-rule:nonzero;stroke:none"
     d="m 3.44897,242.33616 c -4.33196,4.33195 -4.33196,11.33928 0,15.67124 l 238.88719,238.88719 c 4.33196,4.33196 11.33929,4.33196 15.67125,0 L 496.89459,258.0074 c 4.33197,-4.33197 4.33197,-11.33928 1e-5,-15.67124 L 258.0074,3.4489589 c -4.33195,-4.33194986 -11.33929,-4.33194386 -15.67125,1e-5 z"
     id="path5216"
     inkscape:connector-curvature="0"
     sodipodi:nodetypes="sssssssss" />
  <path
     style="fill:#000000;fill-opacity:1;fill-rule:nonzero;stroke:none"
     d="M 250.17178,12.231763 488.11179,250.17177 250.17178,488.1118 12.23176,250.17178 z M 233.43743,43.106889 43.10689,233.43744 c -9.25965,9.25963 -9.25965,24.20902 -1e-5,33.46868 l 190.33054,190.33056 c 9.25965,9.25963 24.20908,9.25963 33.46871,0 L 457.23669,266.90612 c 9.25964,-9.25964 9.25964,-24.20905 0,-33.46869 L 266.90613,43.106869 c -9.25965,-9.259653 -24.20905,-9.25963 -33.4687,2e-5 z"
     id="path17826"
     inkscape:connector-curvature="0"
     sodipodi:nodetypes="cccccsssssssss" />
  <path
     d="m 353.9132,208.19913 c 1.30718,-1.28757 1.30718,-3.49262 0,-4.79979 L 328.15768,177.6234 c -1.34803,-1.30718 -3.49262,-1.30718 -4.82022,0 l -70.77149,70.75107 c -1.32843,1.32842 -3.4722,1.32842 -4.82023,0 L 177.01509,177.6234 c -1.30718,-1.30718 -3.4722,-1.30718 -4.7998,0 l -25.75552,25.77594 c -1.34802,1.30717 -1.34802,3.51304 0,4.79979 l 79.69709,79.69708 c 1.30718,1.30718 2.38969,3.96239 2.38969,5.84146 l 0,105.96321 c 0,1.87907 1.55227,3.41092 3.43134,3.41092 l 36.4172,0 c 1.85864,0 3.41092,-1.53104 3.41092,-3.41092 l 0,-105.96321 c 0,-1.87907 1.08168,-4.53428 2.4101,-5.84146 l 79.69709,-79.69708"
     style="fill:#000000;fill-opacity:1;fill-rule:nonzero;stroke:none"
     id="path5292"
     inkscape:connector-curvature="0" />
</svg>
